<svg xmlns="http://www.w3.org/2000/svg" width="805" height="600"><rect width="805" height="600" x="0" y="0" fill="#FFFFFF" id="backgorund"/><g transform="translate(10,10)" id="viz"><g><rect x="0" y="469.5520152505448" height="26.180555555555543" width="5" fill="black"><title>Other: 17</title></rect><rect x="780" y="486.68981481481495" height="4.620098039215748" width="5" fill="black"><title>Aggregation: 3</title></rect><rect x="0" y="509.15849673202626" height="70.84150326797374" width="5" fill="black"><title>Individual gifts: 46</title></rect><rect x="0" y="150.09395424836643" height="150.92320261437905" width="5" fill="black"><title>Advertising: 98</title></rect><rect x="780" y="542.3679193899783" height="4.620098039215804" width="5" fill="black"><title>Audience: 3</title></rect><rect x="0" y="314.44308278867135" height="141.68300653594753" width="5" fill="black"><title>Institution Funding: 92</title></rect><rect x="780" y="355.9844771241828" height="27.7205882352942" width="5" fill="black"><title>Email: 18</title></rect><rect x="0" y="112.02750544662335" height="24.640522875817155" width="5" fill="black"><title>Readers: 16</title></rect><rect x="780" y="578.4599673202616" height="1.540032679738374" width="5" fill="black"><title>Events: 1</title></rect><rect x="780" y="397.1309912854029" height="9.240196078431495" width="5" fill="black"><title>Owned and operated mobile app(s): 6</title></rect><rect x="780" y="524.3218954248366" height="4.620098039215804" width="5" fill="black"><title>Podcast: 3</title></rect><rect x="780" y="504.7358387799566" height="6.160130718954122" width="5" fill="black"><title>Print: 4</title></rect><rect x="780" y="150.4888344226577" height="129.36274509803928" width="5" fill="black"><title>Social media: 84</title></rect><rect x="0" y="93.9814814814817" height="4.620098039215748" width="5" fill="black"><title>None: 3</title></rect><rect x="780" y="434.7630718954246" height="38.50081699346441" width="5" fill="black"><title>Syndicated feed or content partnerships: 25</title></rect><rect x="780" y="419.7971132897603" height="1.540032679738374" width="5" fill="black"><title>Television: 1</title></rect><rect x="780" y="560.41394335512" height="4.620098039215804" width="5" fill="black"><title>Text: 3</title></rect><rect x="780" y="293.27750544662285" height="49.281045751634" width="5" fill="black"><title>Third party content platforms: 32</title></rect><rect x="780" y="0" height="137.06290849673178" width="5" fill="black"><title>Website: 89</title></rect></g><g class="links" fill="none" stroke-opacity="0.7"><path d="M5,491.88248910675406C392.5,491.88248910675406,392.5,488.9998638344228,780,488.9998638344228" stroke="rgb(105, 189, 169)" style="stroke-width: 1.54003; mix-blend-mode: multiply;"><title>Other → Aggregation: 1</title></path><path d="M5,573.0698529411764C392.5,573.0698529411764,392.5,490.5398965141615,780,490.5398965141615" stroke="rgb(240, 112, 74)" style="stroke-width: 1.54003; mix-blend-mode: multiply;"><title>Individual gifts → Aggregation: 1</title></path><path d="M5,297.16707516339903C392.5,297.16707516339903,392.5,487.45983115468414,780,487.45983115468414" stroke="rgb(158, 1, 66)" style="stroke-width: 1.54003; mix-blend-mode: multiply;"><title>Advertising → Aggregation: 1</title></path><path d="M5,300.2471405228761C392.5,300.2471405228761,392.5,543.1379357298475,780,543.1379357298475" stroke="rgb(158, 1, 66)" style="stroke-width: 1.54003; mix-blend-mode: multiply;"><title>Advertising → Audience: 1</title></path><path d="M5,576.1499183006538C392.5,576.1499183006538,392.5,546.2180010893248,780,546.2180010893248" stroke="rgb(240, 112, 74)" style="stroke-width: 1.54003; mix-blend-mode: multiply;"><title>Individual gifts → Audience: 1</title></path><path d="M5,452.2760076252723C392.5,452.2760076252723,392.5,544.6779684095861,780,544.6779684095861" stroke="rgb(254, 221, 141)" style="stroke-width: 1.54003; mix-blend-mode: multiply;"><title>Institution Funding → Audience: 1</title></path><path d="M5,557.6695261437908C392.5,557.6695261437908,392.5,378.31495098039187,780,378.31495098039187" stroke="rgb(240, 112, 74)" style="stroke-width: 10.7802; mix-blend-mode: multiply;"><title>Individual gifts → Email: 7</title></path><path d="M5,279.4566993464055C392.5,279.4566993464055,392.5,362.1446078431369,780,362.1446078431369" stroke="rgb(158, 1, 66)" style="stroke-width: 6.16013; mix-blend-mode: multiply;"><title>Advertising → Email: 4</title></path><path d="M5,422.24537037037055C392.5,422.24537037037055,392.5,368.3047385620912,780,368.3047385620912" stroke="rgb(254, 221, 141)" style="stroke-width: 6.16013; mix-blend-mode: multiply;"><title>Institution Funding → Email: 4</title></path><path d="M5,133.58796296296313C392.5,133.58796296296313,392.5,357.5245098039213,780,357.5245098039213" stroke="rgb(94, 79, 162)" style="stroke-width: 3.08007; mix-blend-mode: multiply;"><title>Readers → Email: 2</title></path><path d="M5,487.2623910675383C392.5,487.2623910675383,392.5,372.15482026143775,780,372.15482026143775" stroke="rgb(105, 189, 169)" style="stroke-width: 1.54003; mix-blend-mode: multiply;"><title>Other → Email: 1</title></path><path d="M5,579.2299836601311C392.5,579.2299836601311,392.5,579.2299836601309,780,579.2299836601309" stroke="rgb(240, 112, 74)" style="stroke-width: 1.54003; mix-blend-mode: multiply;"><title>Individual gifts → Events: 1</title></path><path d="M5,427.6354847494555C392.5,427.6354847494555,392.5,402.5211056644882,780,402.5211056644882" stroke="rgb(254, 221, 141)" style="stroke-width: 4.6201; mix-blend-mode: multiply;"><title>Institution Funding → Owned and operated mobile app(s): 3</title></path><path d="M5,283.3067810457521C392.5,283.3067810457521,392.5,399.4410403050108,780,399.4410403050108" stroke="rgb(158, 1, 66)" style="stroke-width: 1.54003; mix-blend-mode: multiply;"><title>Advertising → Owned and operated mobile app(s): 1</title></path><path d="M5,563.8296568627449C392.5,563.8296568627449,392.5,405.6011710239652,780,405.6011710239652" stroke="rgb(240, 112, 74)" style="stroke-width: 1.54003; mix-blend-mode: multiply;"><title>Individual gifts → Owned and operated mobile app(s): 1</title></path><path d="M5,135.898011982571C392.5,135.898011982571,392.5,397.9010076252721,780,397.9010076252721" stroke="rgb(94, 79, 162)" style="stroke-width: 1.54003; mix-blend-mode: multiply;"><title>Readers → Owned and operated mobile app(s): 1</title></path><path d="M5,449.96595860566475C392.5,449.96595860566475,392.5,525.8619281045753,780,525.8619281045753" stroke="rgb(254, 221, 141)" style="stroke-width: 3.08007; mix-blend-mode: multiply;"><title>Institution Funding → Podcast: 2</title></path><path d="M5,494.96255446623144C392.5,494.96255446623144,392.5,528.171977124183,780,528.171977124183" stroke="rgb(105, 189, 169)" style="stroke-width: 1.54003; mix-blend-mode: multiply;"><title>Other → Podcast: 1</title></path><path d="M5,298.7071078431376C392.5,298.7071078431376,392.5,505.5058551198258,780,505.5058551198258" stroke="rgb(158, 1, 66)" style="stroke-width: 1.54003; mix-blend-mode: multiply;"><title>Advertising → Print: 1</title></path><path d="M5,574.6098856209151C392.5,574.6098856209151,392.5,510.12595315904184,780,510.12595315904184" stroke="rgb(240, 112, 74)" style="stroke-width: 1.54003; mix-blend-mode: multiply;"><title>Individual gifts → Print: 1</title></path><path d="M5,447.65590958605657C392.5,447.65590958605657,392.5,507.04588779956447,780,507.04588779956447" stroke="rgb(254, 221, 141)" style="stroke-width: 1.54003; mix-blend-mode: multiply;"><title>Institution Funding → Print: 1</title></path><path d="M5,493.4225217864928C392.5,493.4225217864928,392.5,508.5859204793032,780,508.5859204793032" stroke="rgb(105, 189, 169)" style="stroke-width: 1.54003; mix-blend-mode: multiply;"><title>Other → Print: 1</title></path><path d="M5,226.32557189542513C392.5,226.32557189542513,392.5,185.13956971677524,780,185.13956971677524" stroke="rgb(158, 1, 66)" style="stroke-width: 50.8211; mix-blend-mode: multiply;"><title>Advertising → Social media: 33</title></path><path d="M5,381.43450435729875C392.5,381.43450435729875,392.5,232.8805827886707,780,232.8805827886707" stroke="rgb(254, 221, 141)" style="stroke-width: 44.6609; mix-blend-mode: multiply;"><title>Institution Funding → Social media: 29</title></path><path d="M5,539.9591503267975C392.5,539.9591503267975,392.5,270.61138344226543,780,270.61138344226543" stroke="rgb(240, 112, 74)" style="stroke-width: 18.4804; mix-blend-mode: multiply;"><title>Individual gifts → Social media: 12</title></path><path d="M5,125.11778322440112C392.5,125.11778322440112,392.5,155.87894880174264,780,155.87894880174264" stroke="rgb(94, 79, 162)" style="stroke-width: 7.70016; mix-blend-mode: multiply;"><title>Readers → Social media: 5</title></path><path d="M5,481.8722766884534C392.5,481.8722766884534,392.5,258.29112200435685,780,258.29112200435685" stroke="rgb(105, 189, 169)" style="stroke-width: 6.16013; mix-blend-mode: multiply;"><title>Other → Social media: 4</title></path><path d="M5,96.29153050108957C392.5,96.29153050108957,392.5,151.25885076252703,780,151.25885076252703" stroke="rgb(224, 243, 161)" style="stroke-width: 1.54003; mix-blend-mode: multiply;"><title>None → Social media: 1</title></path><path d="M5,438.41571350762536C392.5,438.41571350762536,392.5,454.0134803921565,780,454.0134803921565" stroke="rgb(254, 221, 141)" style="stroke-width: 16.9404; mix-blend-mode: multiply;"><title>Institution Funding → Syndicated feed or content partnerships: 11</title></path><path d="M5,291.00694444444474C392.5,291.00694444444474,392.5,440.15318627450955,780,440.15318627450955" stroke="rgb(158, 1, 66)" style="stroke-width: 10.7802; mix-blend-mode: multiply;"><title>Advertising → Syndicated feed or content partnerships: 7</title></path><path d="M5,568.4497549019607C392.5,568.4497549019607,392.5,469.41380718954184,780,469.41380718954184" stroke="rgb(240, 112, 74)" style="stroke-width: 7.70016; mix-blend-mode: multiply;"><title>Individual gifts → Syndicated feed or content partnerships: 5</title></path><path d="M5,489.5724400871465C392.5,489.5724400871465,392.5,464.0236928104572,780,464.0236928104572" stroke="rgb(105, 189, 169)" style="stroke-width: 3.08007; mix-blend-mode: multiply;"><title>Other → Syndicated feed or content partnerships: 2</title></path><path d="M5,284.8468137254906C392.5,284.8468137254906,392.5,420.5671296296295,780,420.5671296296295" stroke="rgb(158, 1, 66)" style="stroke-width: 1.54003; mix-blend-mode: multiply;"><title>Advertising → Television: 1</title></path><path d="M5,454.5860566448805C392.5,454.5860566448805,392.5,561.9539760348587,780,561.9539760348587" stroke="rgb(254, 221, 141)" style="stroke-width: 3.08007; mix-blend-mode: multiply;"><title>Institution Funding → Text: 2</title></path><path d="M5,577.6899509803925C392.5,577.6899509803925,392.5,564.2640250544663,780,564.2640250544663" stroke="rgb(240, 112, 74)" style="stroke-width: 1.54003; mix-blend-mode: multiply;"><title>Individual gifts → Text: 1</title></path><path d="M5,264.0563725490199C392.5,264.0563725490199,392.5,310.2178649237469,780,310.2178649237469" stroke="rgb(158, 1, 66)" style="stroke-width: 24.6405; mix-blend-mode: multiply;"><title>Advertising → Third party content platforms: 16</title></path><path d="M5,411.4651416122007C392.5,411.4651416122007,392.5,330.23828976034827,780,330.23828976034827" stroke="rgb(254, 221, 141)" style="stroke-width: 15.4003; mix-blend-mode: multiply;"><title>Institution Funding → Third party content platforms: 10</title></path><path d="M5,550.7393790849675C392.5,550.7393790849675,392.5,341.0185185185182,780,341.0185185185182" stroke="rgb(240, 112, 74)" style="stroke-width: 3.08007; mix-blend-mode: multiply;"><title>Individual gifts → Third party content platforms: 2</title></path><path d="M5,130.50789760348607C392.5,130.50789760348607,392.5,296.35757080609994,780,296.35757080609994" stroke="rgb(94, 79, 162)" style="stroke-width: 3.08007; mix-blend-mode: multiply;"><title>Readers → Third party content platforms: 2</title></path><path d="M5,485.72235838779966C392.5,485.72235838779966,392.5,338.70846949891046,780,338.70846949891046" stroke="rgb(105, 189, 169)" style="stroke-width: 1.54003; mix-blend-mode: multiply;"><title>Other → Third party content platforms: 1</title></path><path d="M5,97.8315631808281C392.5,97.8315631808281,392.5,294.0475217864922,780,294.0475217864922" stroke="rgb(224, 243, 161)" style="stroke-width: 1.54003; mix-blend-mode: multiply;"><title>None → Third party content platforms: 1</title></path><path d="M5,175.50449346405262C392.5,175.50449346405262,392.5,36.190767973856076,780,36.190767973856076" stroke="rgb(158, 1, 66)" style="stroke-width: 50.8211; mix-blend-mode: multiply;"><title>Advertising → Website: 33</title></path><path d="M5,336.7735566448805C392.5,336.7735566448805,392.5,83.93178104575153,780,83.93178104575153" stroke="rgb(254, 221, 141)" style="stroke-width: 44.6609; mix-blend-mode: multiply;"><title>Institution Funding → Website: 29</title></path><path d="M5,519.9387254901961C392.5,519.9387254901961,392.5,126.2826797385619,780,126.2826797385619" stroke="rgb(240, 112, 74)" style="stroke-width: 21.5605; mix-blend-mode: multiply;"><title>Individual gifts → Website: 14</title></path><path d="M5,474.17211328976055C392.5,474.17211328976055,392.5,110.8823529411764,780,110.8823529411764" stroke="rgb(105, 189, 169)" style="stroke-width: 9.2402; mix-blend-mode: multiply;"><title>Other → Website: 6</title></path><path d="M5,116.64760348583911C392.5,116.64760348583911,392.5,6.160130718954287,780,6.160130718954287" stroke="rgb(94, 79, 162)" style="stroke-width: 9.2402; mix-blend-mode: multiply;"><title>Readers → Website: 6</title></path><path d="M5,94.75149782135104C392.5,94.75149782135104,392.5,0.7700163398693431,780,0.7700163398693431" stroke="rgb(224, 243, 161)" style="stroke-width: 1.54003; mix-blend-mode: multiply;"><title>None → Website: 1</title></path></g><g><text x="9" y="482.64229302832257" text-anchor="start" transform="translate(0,-5)"><tspan alignment-baseline="middle" style="font-family: Arial, sans-serif; font-size: 10px; fill: black; font-weight: bold;">Other</tspan><tspan alignment-baseline="middle" x="9" dy="12" style="font-family: Arial, sans-serif; font-size: 10px; fill: black; font-weight: normal;">17</tspan></text><text x="776" y="488.99986383442285" text-anchor="end" transform="translate(0,-5)"><tspan alignment-baseline="middle" style="font-family: Arial, sans-serif; font-size: 10px; fill: black; font-weight: bold;">Aggregation</tspan><tspan alignment-baseline="middle" x="776" dy="12" style="font-family: Arial, sans-serif; font-size: 10px; fill: black; font-weight: normal;">3</tspan></text><text x="9" y="544.5792483660132" text-anchor="start" transform="translate(0,-5)"><tspan alignment-baseline="middle" style="font-family: Arial, sans-serif; font-size: 10px; fill: black; font-weight: bold;">Individual gifts</tspan><tspan alignment-baseline="middle" x="9" dy="12" style="font-family: Arial, sans-serif; font-size: 10px; fill: black; font-weight: normal;">46</tspan></text><text x="9" y="225.55555555555594" text-anchor="start" transform="translate(0,-5)"><tspan alignment-baseline="middle" style="font-family: Arial, sans-serif; font-size: 10px; fill: black; font-weight: bold;">Advertising</tspan><tspan alignment-baseline="middle" x="9" dy="12" style="font-family: Arial, sans-serif; font-size: 10px; fill: black; font-weight: normal;">98</tspan></text><text x="776" y="544.6779684095861" text-anchor="end" transform="translate(0,-5)"><tspan alignment-baseline="middle" style="font-family: Arial, sans-serif; font-size: 10px; fill: black; font-weight: bold;">Audience</tspan><tspan alignment-baseline="middle" x="776" dy="12" style="font-family: Arial, sans-serif; font-size: 10px; fill: black; font-weight: normal;">3</tspan></text><text x="9" y="385.28458605664514" text-anchor="start" transform="translate(0,-5)"><tspan alignment-baseline="middle" style="font-family: Arial, sans-serif; font-size: 10px; fill: black; font-weight: bold;">Institution Funding</tspan><tspan alignment-baseline="middle" x="9" dy="12" style="font-family: Arial, sans-serif; font-size: 10px; fill: black; font-weight: normal;">92</tspan></text><text x="776" y="369.8447712418299" text-anchor="end" transform="translate(0,-5)"><tspan alignment-baseline="middle" style="font-family: Arial, sans-serif; font-size: 10px; fill: black; font-weight: bold;">Email</tspan><tspan alignment-baseline="middle" x="776" dy="12" style="font-family: Arial, sans-serif; font-size: 10px; fill: black; font-weight: normal;">18</tspan></text><text x="9" y="124.34776688453192" text-anchor="start" transform="translate(0,-5)"><tspan alignment-baseline="middle" style="font-family: Arial, sans-serif; font-size: 10px; fill: black; font-weight: bold;">Readers</tspan><tspan alignment-baseline="middle" x="9" dy="12" style="font-family: Arial, sans-serif; font-size: 10px; fill: black; font-weight: normal;">16</tspan></text><text x="776" y="579.2299836601308" text-anchor="end" transform="translate(0,-5)"><tspan alignment-baseline="middle" style="font-family: Arial, sans-serif; font-size: 10px; fill: black; font-weight: bold;">Events</tspan><tspan alignment-baseline="middle" x="776" dy="12" style="font-family: Arial, sans-serif; font-size: 10px; fill: black; font-weight: normal;">1</tspan></text><text x="776" y="401.75108932461865" text-anchor="end" transform="translate(0,-5)"><tspan alignment-baseline="middle" style="font-family: Arial, sans-serif; font-size: 10px; fill: black; font-weight: bold;">Owned and operated mobile app(s)</tspan><tspan alignment-baseline="middle" x="776" dy="12" style="font-family: Arial, sans-serif; font-size: 10px; fill: black; font-weight: normal;">6</tspan></text><text x="776" y="526.6319444444446" text-anchor="end" transform="translate(0,-5)"><tspan alignment-baseline="middle" style="font-family: Arial, sans-serif; font-size: 10px; fill: black; font-weight: bold;">Podcast</tspan><tspan alignment-baseline="middle" x="776" dy="12" style="font-family: Arial, sans-serif; font-size: 10px; fill: black; font-weight: normal;">3</tspan></text><text x="776" y="507.81590413943366" text-anchor="end" transform="translate(0,-5)"><tspan alignment-baseline="middle" style="font-family: Arial, sans-serif; font-size: 10px; fill: black; font-weight: bold;">Print</tspan><tspan alignment-baseline="middle" x="776" dy="12" style="font-family: Arial, sans-serif; font-size: 10px; fill: black; font-weight: normal;">4</tspan></text><text x="776" y="215.17020697167735" text-anchor="end" transform="translate(0,-5)"><tspan alignment-baseline="middle" style="font-family: Arial, sans-serif; font-size: 10px; fill: black; font-weight: bold;">Social media</tspan><tspan alignment-baseline="middle" x="776" dy="12" style="font-family: Arial, sans-serif; font-size: 10px; fill: black; font-weight: normal;">84</tspan></text><text x="9" y="96.29153050108957" text-anchor="start" transform="translate(0,-5)"><tspan alignment-baseline="middle" style="font-family: Arial, sans-serif; font-size: 10px; fill: black; font-weight: bold;">None</tspan><tspan alignment-baseline="middle" x="9" dy="12" style="font-family: Arial, sans-serif; font-size: 10px; fill: black; font-weight: normal;">3</tspan></text><text x="776" y="454.0134803921568" text-anchor="end" transform="translate(0,-5)"><tspan alignment-baseline="middle" style="font-family: Arial, sans-serif; font-size: 10px; fill: black; font-weight: bold;">Syndicated feed or content partnerships</tspan><tspan alignment-baseline="middle" x="776" dy="12" style="font-family: Arial, sans-serif; font-size: 10px; fill: black; font-weight: normal;">25</tspan></text><text x="776" y="420.5671296296295" text-anchor="end" transform="translate(0,-5)"><tspan alignment-baseline="middle" style="font-family: Arial, sans-serif; font-size: 10px; fill: black; font-weight: bold;">Television</tspan><tspan alignment-baseline="middle" x="776" dy="12" style="font-family: Arial, sans-serif; font-size: 10px; fill: black; font-weight: normal;">1</tspan></text><text x="776" y="562.7239923747279" text-anchor="end" transform="translate(0,-5)"><tspan alignment-baseline="middle" style="font-family: Arial, sans-serif; font-size: 10px; fill: black; font-weight: bold;">Text</tspan><tspan alignment-baseline="middle" x="776" dy="12" style="font-family: Arial, sans-serif; font-size: 10px; fill: black; font-weight: normal;">3</tspan></text><text x="776" y="317.91802832243985" text-anchor="end" transform="translate(0,-5)"><tspan alignment-baseline="middle" style="font-family: Arial, sans-serif; font-size: 10px; fill: black; font-weight: bold;">Third party content platforms</tspan><tspan alignment-baseline="middle" x="776" dy="12" style="font-family: Arial, sans-serif; font-size: 10px; fill: black; font-weight: normal;">32</tspan></text><text x="776" y="68.53145424836589" text-anchor="end" transform="translate(0,-5)"><tspan alignment-baseline="middle" style="font-family: Arial, sans-serif; font-size: 10px; fill: black; font-weight: bold;">Website</tspan><tspan alignment-baseline="middle" x="776" dy="12" style="font-family: Arial, sans-serif; font-size: 10px; fill: black; font-weight: normal;">89</tspan></text></g></g></svg>