<svg height="768pt" viewBox="0 0 960 768" width="960pt" xmlns="http://www.w3.org/2000/svg" xmlns:xlink="http://www.w3.org/1999/xlink"><symbol id="a" overflow="visible"><path d="m.703125 0v-5.375h.703125v5.375zm0 0"/></symbol><symbol id="b" overflow="visible"><path d="m.5 0v-3.890625h.59375v.546875c.28125-.425781.691406-.640625 1.234375-.640625.226563 0 .441406.046875.640625.140625.195312.085938.34375.195312.4375.328125.101562.136719.175781.296875.21875.484375.019531.125.03125.339844.03125.640625v2.390625h-.65625v-2.359375c0-.269531-.027344-.472656-.078125-.609375-.054687-.132812-.148437-.238281-.28125-.3125-.125-.082031-.277344-.125-.453125-.125-.28125 0-.527344.089844-.734375.265625-.199219.179687-.296875.515625-.296875 1.015625v2.125zm0 0"/></symbol><symbol id="c" overflow="visible"><path d="m3.015625 0v-.484375c-.25.3867188-.609375.578125-1.078125.578125-.3125 0-.601562-.0859375-.859375-.25-.261719-.175781-.464844-.414062-.609375-.71875-.148438-.3125-.21875-.664062-.21875-1.0625 0-.382812.0625-.734375.1875-1.046875.132812-.320313.332031-.566406.59375-.734375.257812-.175781.550781-.265625.875-.265625.226562 0 .429688.054687.609375.15625.1875.09375.335937.226563.453125.390625v-1.9375h.65625v5.375zm-2.078125-1.9375c0 .5.101562.875.3125 1.125.207031.242188.457031.359375.75.359375.28125 0 .519531-.113281.71875-.34375.207031-.238281.3125-.601563.3125-1.09375 0-.53125-.105469-.921875-.3125-1.171875-.210938-.25-.460938-.375-.75-.375-.292969 0-.539062.121094-.734375.359375-.199219.242187-.296875.621094-.296875 1.140625zm0 0"/></symbol><symbol id="d" overflow="visible"><path d="m.5-4.609375v-.765625h.65625v.765625zm0 4.609375v-3.890625h.65625v3.890625zm0 0"/></symbol><symbol id="e" overflow="visible"><path d="m1.578125 0-1.484375-3.890625h.703125l.828125 2.328125c.09375.25.175781.511719.25.78125.0625-.195312.144531-.441406.25-.734375l.859375-2.375h.671875l-1.46875 3.890625zm0 0"/></symbol><symbol id="f" overflow="visible"><path d="m3.046875 0v-.578125c-.304687.449219-.714844.671875-1.234375.671875-.230469 0-.445312-.0429688-.640625-.125-.199219-.09375-.351563-.207031-.453125-.34375-.09375-.132812-.164062-.296875-.203125-.484375-.023437-.132813-.03125-.34375-.03125-.625v-2.40625h.65625v2.15625c0 .34375.007813.578125.03125.703125.039063.167969.128906.304688.265625.40625.132812.09375.300781.140625.5.140625.195312 0 .378906-.046875.546875-.140625.175781-.101562.300781-.242188.375-.421875.070313-.175781.109375-.429687.109375-.765625v-2.078125h.671875v3.890625zm0 0"/></symbol><symbol id="g" overflow="visible"><path d="m3.03125-.484375c-.242188.210937-.476562.359375-.703125.453125-.230469.0820312-.476563.125-.734375.125-.429688 0-.757812-.1015625-.984375-.3125-.230469-.207031-.34375-.476562-.34375-.8125 0-.1875.039063-.359375.125-.515625.09375-.15625.207031-.28125.34375-.375.144531-.09375.304687-.164063.484375-.21875.125-.03125.316406-.0625.578125-.09375.53125-.070313.925781-.148437 1.1875-.234375 0-.09375 0-.148438 0-.171875 0-.269531-.0625-.457031-.1875-.5625-.167969-.15625-.417969-.234375-.75-.234375-.3125 0-.542969.058594-.6875.171875-.148437.105469-.257813.296875-.328125.578125l-.640625-.09375c.050781-.269531.144531-.488281.28125-.65625.132813-.175781.328125-.3125.578125-.40625.257812-.09375.554688-.140625.890625-.140625.332031 0 .601563.042969.8125.125.207031.074219.359375.171875.453125.296875.09375.117188.160156.265625.203125.453125.019531.105469.03125.304687.03125.59375v.890625c0 .617188.015625 1.007812.046875 1.171875.03125.15625.085938.308594.171875.453125h-.6875c-.074219-.132812-.121094-.296875-.140625-.484375zm-.046875-1.46875c-.242187.09375-.601563.179687-1.078125.25-.273438.042969-.464844.089844-.578125.140625-.117187.042969-.203125.109375-.265625.203125s-.09375.199219-.09375.3125c0 .179687.066406.328125.203125.453125.132813.117188.332031.171875.59375.171875.25 0 .472656-.054687.671875-.171875.195312-.113281.34375-.265625.4375-.453125.070312-.15625.109375-.375.109375-.65625zm0 0"/></symbol><symbol id="h" overflow="visible"><path d="m.484375 0v-5.375h.65625v5.375zm0 0"/></symbol><symbol id="i" overflow="visible"/><symbol id="j" overflow="visible"><path d="m.375.328125.640625.09375c.03125.195313.101563.335937.21875.421875.164063.125.390625.1875.671875.1875.300781 0 .535156-.0625.703125-.1875.164063-.117188.28125-.28125.34375-.5.03125-.136719.046875-.421875.046875-.859375-.292969.34375-.652344.515625-1.078125.515625-.53125 0-.949219-.191406-1.25-.578125-.292969-.382813-.4375-.847656-.4375-1.390625 0-.363281.066406-.703125.203125-1.015625.132812-.320313.328125-.566406.578125-.734375.257813-.175781.5625-.265625.90625-.265625.457031 0 .835937.1875 1.140625.5625v-.46875h.609375v3.359375c0 .6015625-.0625 1.03125-.1875 1.28125-.125.257812-.324219.460938-.59375.609375-.261719.144531-.589844.21875-.984375.21875-.460938 0-.835938-.105469-1.125-.3125-.28125-.210937-.417969-.523437-.40625-.9375zm.546875-2.34375c0 .511719.097656.886719.296875 1.125.207031.230469.460938.34375.765625.34375.300781 0 .550781-.113281.75-.34375.207031-.238281.3125-.609375.3125-1.109375 0-.46875-.105469-.820312-.3125-1.0625-.210937-.25-.464844-.375-.765625-.375-.292969 0-.542969.121094-.75.359375-.199219.242187-.296875.59375-.296875 1.0625zm0 0"/></symbol><symbol id="k" overflow="visible"><path d="m.65625 0v-3.375h-.59375v-.515625h.59375v-.40625c0-.257813.019531-.457031.0625-.59375.0625-.164063.171875-.300781.328125-.40625.164063-.101563.394531-.15625.6875-.15625.175781 0 .378906.023437.609375.0625l-.09375.578125c-.136719-.03125-.265625-.046875-.390625-.046875-.199219 0-.339844.046875-.421875.140625-.085938.085938-.125.242188-.125.46875v.359375h.75v.515625h-.75v3.375zm0 0"/></symbol><symbol id="l" overflow="visible"><path d="m1.9375-.59375.09375.59375c-.1875.03125-.355469.046875-.5.046875-.242188 0-.429688-.0390625-.5625-.109375-.125-.070312-.21875-.171875-.28125-.296875-.054688-.125-.078125-.382813-.078125-.78125v-2.234375h-.484375v-.515625h.484375v-.96875l.65625-.390625v1.359375h.671875v.515625h-.671875v2.265625c0 .1875.007813.3125.03125.375.03125.054687.070313.09375.125.125.050781.03125.125.046875.21875.046875.070313 0 .171875-.007812.296875-.03125zm0 0"/></symbol><symbol id="m" overflow="visible"><path d="m.234375-1.15625.640625-.109375c.039062.261719.144531.464844.3125.609375.164062.136719.398438.203125.703125.203125.300781 0 .523437-.0625.671875-.1875.144531-.125.21875-.269531.21875-.4375 0-.144531-.0625-.257813-.1875-.34375-.09375-.0625-.320312-.132813-.671875-.21875-.492187-.125-.828125-.226563-1.015625-.3125-.1875-.09375-.328125-.21875-.421875-.375-.09375-.164063-.140625-.34375-.140625-.53125 0-.164063.035156-.320313.109375-.46875.082031-.15625.191406-.28125.328125-.375.101562-.070313.242188-.132813.421875-.1875.175781-.0625.363281-.09375.5625-.09375.3125 0 .582031.046875.8125.140625.226563.085938.394531.203125.5.359375.113281.148437.191406.34375.234375.59375l-.640625.09375c-.03125-.195313-.121094-.351563-.265625-.46875-.136719-.113281-.335938-.171875-.59375-.171875-.304688 0-.515625.054688-.640625.15625-.125.09375-.1875.210938-.1875.34375 0 .085938.023437.164062.078125.234375.050781.074219.132812.132813.25.171875.0625.03125.253906.089844.578125.171875.46875.125.789063.230469.96875.3125.1875.074219.332031.1875.4375.34375.101563.148437.15625.335937.15625.5625 0 .21875-.0625.429687-.1875.625-.125.1875-.3125.339844-.5625.453125-.242187.1015625-.511719.15625-.8125.15625-.5 0-.886719-.1015625-1.15625-.3125-.261719-.21875-.429687-.53125-.5-.9375zm0 0"/></symbol><symbol id="n" overflow="visible"><path d="m.34375-1.71875.65625-.0625c.039062.273438.117188.496094.234375.671875.113281.167969.289063.304687.53125.40625.25.105469.523437.15625.828125.15625.269531 0 .507812-.035156.71875-.109375.207031-.082031.359375-.191406.453125-.328125.101563-.144531.15625-.300781.15625-.46875 0-.164063-.046875-.3125-.140625-.4375-.09375-.132813-.257812-.242187-.484375-.328125-.148437-.050781-.46875-.132812-.96875-.25-.492187-.125-.835937-.238281-1.03125-.34375-.25-.132812-.4375-.300781-.5625-.5-.125-.195312-.1875-.421875-.1875-.671875 0-.269531.070313-.519531.21875-.75.15625-.238281.378906-.414063.671875-.53125.300781-.125.632812-.1875 1-.1875.394531 0 .742188.0625 1.046875.1875.300781.125.535156.3125.703125.5625.164062.25.253906.53125.265625.84375l-.6875.046875c-.03125-.332031-.15625-.582031-.375-.75-.210937-.175781-.515625-.265625-.921875-.265625-.4375 0-.757812.078125-.953125.234375-.1875.15625-.28125.34375-.28125.5625 0 .199219.066406.359375.203125.484375.132812.125.488281.257813 1.0625.390625.582031.125.976562.234375 1.1875.328125.3125.148437.539062.328125.6875.546875.15625.21875.234375.476562.234375.765625 0 .28125-.085937.554687-.25.8125-.15625.25-.390625.449219-.703125.59375-.304688.1328125-.648438.203125-1.03125.203125-.492188 0-.902344-.0703125-1.234375-.203125-.324219-.144531-.578125-.359375-.765625-.640625-.179688-.289062-.273438-.613281-.28125-.96875zm0 0"/></symbol><symbol id="o" overflow="visible"><path d="m.25-1.9375c0-.726562.195312-1.265625.59375-1.609375.332031-.289063.742188-.4375 1.234375-.4375.53125 0 .960937.179687 1.296875.53125.34375.355469.515625.839844.515625 1.453125 0 .5-.078125.898438-.234375 1.1875-.148438.28125-.367188.507812-.65625.671875-.28125.15625-.589844.234375-.921875.234375-.554687 0-.996094-.171875-1.328125-.515625-.335938-.351563-.5-.859375-.5-1.515625zm.671875 0c0 .492188.109375.859375.328125 1.109375s.492188.375.828125.375c.320313 0 .59375-.125.8125-.375s.328125-.628906.328125-1.140625c0-.476562-.109375-.84375-.328125-1.09375s-.492187-.375-.8125-.375c-.335937 0-.609375.125-.828125.375s-.328125.625-.328125 1.125zm0 0"/></symbol><symbol id="p" overflow="visible"><path d="m3.03125-1.421875.65625.078125c-.074219.449219-.257812.804688-.546875 1.0625-.292969.25-.652344.375-1.078125.375-.53125 0-.960938-.171875-1.28125-.515625-.324219-.351563-.484375-.859375-.484375-1.515625 0-.414062.066406-.78125.203125-1.09375.132812-.3125.34375-.546875.625-.703125.289062-.164063.601562-.25.9375-.25.425781 0 .769531.109375 1.03125.328125.269531.210938.445312.511719.53125.90625l-.640625.109375c-.0625-.269531-.171875-.46875-.328125-.59375-.15625-.132813-.34375-.203125-.5625-.203125-.335938 0-.605469.121094-.8125.359375-.210938.242187-.3125.617187-.3125 1.125 0 .523437.097656.902344.296875 1.140625.207031.242188.46875.359375.78125.359375.257813 0 .476563-.078125.65625-.234375.175781-.164062.285156-.410156.328125-.734375zm0 0"/></symbol><symbol id="q" overflow="visible"><path d="m.5625 0v-5.375h1.0625l1.265625 3.8125c.125.355469.210937.621094.265625.796875.0625-.195313.15625-.488281.28125-.875l1.28125-3.734375h.96875v5.375h-.6875v-4.5l-1.5625 4.5h-.640625l-1.5625-4.578125v4.578125zm0 0"/></symbol><symbol id="r" overflow="visible"><path d="m3.15625-1.25.6875.078125c-.117188.398437-.320312.710937-.609375.9375-.28125.21875-.652344.328125-1.109375.328125-.5625 0-1.011719-.1757812-1.34375-.53125-.335938-.351562-.5-.84375-.5-1.46875 0-.65625.164062-1.164062.5-1.53125.332031-.363281.769531-.546875 1.3125-.546875.519531 0 .941406.179687 1.265625.53125.332031.355469.5.855469.5 1.5v.171875h-2.90625c.03125.429688.148437.757812.359375.984375.21875.230469.488281.34375.8125.34375.25 0 .457031-.0625.625-.1875.164062-.125.300781-.328125.40625-.609375zm-2.15625-1.0625h2.171875c-.03125-.332031-.117187-.578125-.25-.734375-.21875-.257813-.496094-.390625-.828125-.390625-.304688 0-.558594.105469-.765625.3125-.199219.199219-.308594.46875-.328125.8125zm0 0"/></symbol><symbol id="s" overflow="visible"><path d="m-.015625 0 2.0625-5.375h.765625l2.203125 5.375h-.8125l-.625-1.625h-2.25l-.578125 1.625zm1.546875-2.203125h1.828125l-.5625-1.484375c-.167969-.457031-.292969-.832031-.375-1.125-.074219.355469-.171875.699219-.296875 1.03125zm0 0"/></symbol><symbol id="t" overflow="visible"><path d="m.484375 0v-3.890625h.59375v.59375c.15625-.28125.296875-.460937.421875-.546875.125-.09375.265625-.140625.421875-.140625.21875 0 .441406.074219.671875.21875l-.21875.609375c-.167969-.09375-.328125-.140625-.484375-.140625-.148437 0-.277344.046875-.390625.140625-.117188.085938-.199219.199219-.25.34375-.074219.242188-.109375.5-.109375.78125v2.03125zm0 0"/></symbol><symbol id="u" overflow="visible"><path d="m.609375 0v-5.375h3.625v.640625h-2.90625v1.65625h2.515625v.640625h-2.515625v2.4375zm0 0"/></symbol><symbol id="v" overflow="visible"><path d="m.359375-2.609375c0-.894531.238281-1.59375.71875-2.09375.476563-.507813 1.097656-.765625 1.859375-.765625.488281 0 .929688.121094 1.328125.359375.40625.242187.710937.574219.921875 1 .207031.417969.3125.898437.3125 1.4375 0 .542969-.109375 1.027344-.328125 1.453125-.21875.429688-.53125.757812-.9375.984375-.40625.21875-.839844.328125-1.296875.328125-.511719 0-.964844-.1171875-1.359375-.359375-.398437-.25-.699219-.582031-.90625-1-.210937-.425781-.3125-.875-.3125-1.34375zm.734375 0c0 .648437.171875 1.15625.515625 1.53125.351563.375.789063.5625 1.3125.5625.539063 0 .984375-.1875 1.328125-.5625s.515625-.910156.515625-1.609375c0-.4375-.074219-.816406-.21875-1.140625-.148437-.320313-.367187-.570313-.65625-.75-.28125-.1875-.601563-.28125-.953125-.28125-.5 0-.933594.179687-1.296875.53125-.367187.34375-.546875.917969-.546875 1.71875zm0 0"/></symbol><symbol id="w" overflow="visible"><path d="m.5 0v-5.375h.65625v1.9375c.300781-.363281.6875-.546875 1.15625-.546875.289062 0 .539062.058594.75.171875.21875.117188.367188.277344.453125.484375.09375.199219.140625.484375.140625.859375v2.46875h-.65625v-2.46875c0-.320312-.074219-.554688-.21875-.703125-.136719-.15625-.335938-.234375-.59375-.234375-.199219 0-.386719.054688-.5625.15625-.167969.09375-.289062.230469-.359375.40625-.074219.179688-.109375.417969-.109375.71875v2.125zm0 0"/></symbol><symbol id="x" overflow="visible"><path d="m.578125 0v-5.375h.71875l2.828125 4.21875v-4.21875h.671875v5.375h-.71875l-2.828125-4.21875v4.21875zm0 0"/></symbol><symbol id="y" overflow="visible"><path d="m1.9375 0v-4.734375h-1.765625v-.640625h4.265625v.640625h-1.78125v4.734375zm0 0"/></symbol><symbol id="z" overflow="visible"><path d="m.5 1.484375v-5.375h.59375v.5c.144531-.195313.304688-.34375.484375-.4375.175781-.101563.390625-.15625.640625-.15625.332031 0 .625.089844.875.265625.257812.167969.453125.40625.578125.71875.132813.3125.203125.65625.203125 1.03125 0 .398438-.074219.757812-.21875 1.078125-.148438.3125-.355469.558594-.625.734375-.273438.1640625-.558594.25-.859375.25-.21875 0-.417969-.046875-.59375-.140625-.167969-.09375-.308594-.210937-.421875-.359375v1.890625zm.59375-3.40625c0 .5.097656.871094.296875 1.109375.207031.242188.453125.359375.734375.359375.300781 0 .554688-.125.765625-.375.207031-.25.3125-.632813.3125-1.15625 0-.488281-.105469-.851563-.3125-1.09375-.210937-.25-.453125-.375-.734375-.375s-.53125.132813-.75.390625c-.210938.261719-.3125.640625-.3125 1.140625zm0 0"/></symbol><symbol id="A" overflow="visible"><path d="m.46875 1.5-.078125-.625c.144531.039062.269531.0625.375.0625.144531 0 .257813-.027344.34375-.078125.09375-.042969.171875-.109375.234375-.203125.039062-.0625.101562-.226562.1875-.484375.019531-.042969.039062-.1015625.0625-.171875l-1.46875-3.890625h.703125l.8125 2.25c.101563.292969.195313.59375.28125.90625.070313-.300781.160156-.597656.265625-.890625l.84375-2.265625h.65625l-1.484375 3.953125c-.15625.425781-.28125.722656-.375.890625-.117187.21875-.25.375-.40625.46875-.148437.101563-.324219.15625-.53125.15625-.125 0-.265625-.027344-.421875-.078125zm0 0"/></symbol><symbol id="B" overflow="visible"><path d="m.5 0v-3.890625h.578125v.546875c.125-.1875.285156-.335938.484375-.453125.207031-.125.441406-.1875.703125-.1875.289063 0 .523437.0625.703125.1875.1875.117187.316406.28125.390625.5.3125-.457031.710937-.6875 1.203125-.6875.382812 0 .679688.109375.890625.328125.207031.210938.3125.539062.3125.984375v2.671875h-.65625v-2.453125c0-.257813-.023437-.445313-.0625-.5625-.042969-.113281-.121094-.207031-.234375-.28125-.117188-.070313-.246094-.109375-.390625-.109375-.28125 0-.511719.09375-.6875.28125-.179687.179688-.265625.464844-.265625.859375v2.265625h-.65625v-2.53125c0-.289062-.058594-.507812-.171875-.65625-.105469-.144531-.28125-.21875-.53125-.21875-.179687 0-.351563.054688-.515625.15625-.15625.09375-.273438.234375-.34375.421875-.0625.1875-.09375.460937-.09375.8125v2.015625zm0 0"/></symbol><symbol id="C" overflow="visible"><path d="m1.515625 0-1.421875-5.375h.734375l.8125 3.53125c.082031.367188.15625.730469.21875 1.09375.132813-.570312.21875-.90625.25-1l1.015625-3.625h.859375l.765625 2.71875c.195312.679688.335938 1.3125.421875 1.90625.070313-.34375.160156-.734375.265625-1.171875l.84375-3.453125h.71875l-1.484375 5.375h-.671875l-1.140625-4.09375c-.09375-.34375-.152344-.550781-.171875-.625-.054688.25-.105469.460938-.15625.625l-1.140625 4.09375zm0 0"/></symbol><symbol id="D" overflow="visible"><path d="m1.109375 0h-.625v-5.375h.671875v1.921875c.269531-.351563.625-.53125 1.0625-.53125.238281 0 .460938.054687.671875.15625.21875.09375.394531.230469.53125.40625.132813.167969.238281.375.3125.625.082031.25.125.515625.125.796875 0 .667969-.167969 1.183594-.5 1.546875-.324219.3671875-.714844.546875-1.171875.546875-.460938 0-.820312-.1914062-1.078125-.578125zm-.015625-1.96875c0 .460938.0625.792969.1875 1 .207031.34375.488281.515625.84375.515625.289062 0 .539062-.125.75-.375.207031-.25.3125-.625.3125-1.125s-.105469-.867187-.3125-1.109375c-.199219-.25-.4375-.375-.71875-.375-.292969 0-.542969.125-.75.375-.210938.25-.3125.617188-.3125 1.09375zm0 0"/></symbol><symbol id="E" overflow="visible"><path d="m4.40625-1.875.71875.171875c-.15625.585937-.429688 1.03125-.8125 1.34375-.386719.3046875-.859375.453125-1.421875.453125-.574219 0-1.042969-.1132812-1.40625-.34375-.367187-.238281-.640625-.582031-.828125-1.03125-.1875-.445312-.28125-.925781-.28125-1.4375 0-.5625.101562-1.050781.3125-1.46875.21875-.414062.523438-.726562.921875-.9375.394531-.21875.828125-.328125 1.296875-.328125.539062 0 .992188.136719 1.359375.40625.363281.273437.617187.65625.765625 1.15625l-.703125.15625c-.125-.382813-.308594-.664063-.546875-.84375-.230469-.1875-.527344-.28125-.890625-.28125-.40625 0-.75.101563-1.03125.296875-.28125.199219-.480469.464844-.59375.796875-.105469.335937-.15625.679687-.15625 1.03125 0 .460937.0625.859375.1875 1.203125.132813.34375.34375.601562.625.765625.28125.167969.585937.25.921875.25.394531 0 .726562-.113281 1-.34375.28125-.226563.46875-.566406.5625-1.015625zm0 0"/></symbol><symbol id="F" overflow="visible"><path d="m.59375 0v-5.375h3.875v.640625h-3.171875v1.640625h2.984375v.625h-2.984375v1.828125h3.296875v.640625zm0 0"/></symbol><symbol id="G" overflow="visible"><path d="m.0625 0 1.40625-2.015625-1.3125-1.875h.828125l.59375.90625c.113281.179687.207031.324219.28125.4375.101563-.15625.203125-.296875.296875-.421875l.65625-.921875h.78125l-1.34375 1.828125 1.4375 2.0625h-.796875l-.796875-1.203125-.21875-.328125-1.015625 1.53125zm0 0"/></symbol><symbol id="H" overflow="visible"><path d="m.578125 0v-5.375h2.03125c.351563 0 .625.023438.8125.0625.257813.042969.476563.125.65625.25.175781.125.316406.296875.421875.515625.113281.21875.171875.464844.171875.734375 0 .460938-.148437.84375-.4375 1.15625-.28125.3125-.804687.46875-1.5625.46875h-1.375v2.1875zm.71875-2.8125h1.375c.457031 0 .78125-.082031.96875-.25.195313-.175781.296875-.421875.296875-.734375 0-.21875-.058594-.40625-.171875-.5625-.105469-.164063-.25-.273437-.4375-.328125-.125-.03125-.351563-.046875-.671875-.046875h-1.359375zm0 0"/></symbol><symbol id="I" overflow="visible"><path d="m.59375 0v-5.375h2.375c.476562 0 .84375.054688 1.09375.15625.25.09375.445312.265625.59375.515625.144531.242187.21875.507813.21875.796875 0 .386719-.125.710938-.375.96875-.242188.261719-.617188.429688-1.125.5.1875.085938.328125.171875.421875.265625.207031.1875.40625.421875.59375.703125l.9375 1.46875h-.90625l-.703125-1.109375c-.210938-.320313-.382812-.566406-.515625-.734375-.136719-.175781-.257813-.296875-.359375-.359375-.105469-.070313-.214844-.125-.328125-.15625-.074219-.019531-.203125-.03125-.390625-.03125h-.828125v2.390625zm.703125-3h1.53125c.320313 0 .570313-.03125.75-.09375.1875-.070312.328125-.179688.421875-.328125.101562-.144531.15625-.304687.15625-.484375 0-.25-.09375-.457031-.28125-.625-.1875-.164062-.480469-.25-.875-.25h-1.703125zm0 0"/></symbol><g fill="#aaa" fill-opacity=".6"><path d="m13.5 215.054688c145 0 290-162.777344 435-162.777344v8.167968c-145 0-290 162.777344-435 162.777344zm0 0"/><path d="m13.5 43.5c145 0 290-37.5 435-37.5v22.457031c-145 0-290 37.5-435 37.5zm0 0"/><path d="m13.5 117.015625c145 0 290-88.558594 435-88.558594v19.738281c-145 0-290 88.554688-435 88.554688zm0 0"/><path d="m13.5 196.667969c145 0 290-147.792969 435-147.792969v3.402344c-145 0-290 147.792968-435 147.792968zm0 0"/><path d="m13.5 253.179688c145 0 290-192.734376 435-192.734376v2.722657c-145 0-290 192.734375-435 192.734375zm0 0"/><path d="m13.5 187.125c145 0 290-138.929688 435-138.929688v.679688c-145 0-290 138.929688-435 138.929688zm0 0"/><path d="m13.5 223.222656c145 0 290-132.820312 435-132.820312v1.363281c-145 0-290 132.816406-435 132.816406zm0 0"/><path d="m13.5 65.957031c145 0 290 4.710938 435 4.710938v10.886719c-145 0-290-4.707032-435-4.707032zm0 0"/><path d="m13.5 136.75c145 0 290-55.195312 435-55.195312v6.804687c-145 0-290 55.195313-435 55.195313zm0 0"/><path d="m13.5 200.070312c145 0 290-111.027343 435-111.027343v1.359375c-145 0-290 111.027344-435 111.027344zm0 0"/><path d="m13.5 255.902344c145 0 290-164.136719 435-164.136719v.679687c-145 0-290 164.136719-435 164.136719zm0 0"/><path d="m13.5 187.804688c145 0 290-99.445313 435-99.445313v.683594c-145 0-290 99.441406-435 99.441406zm0 0"/><path d="m13.5 224.582031c145 0 290-77.679687 435-77.679687v9.527344c-145 0-290 77.679687-435 77.679687zm0 0"/><path d="m13.5 76.847656c145 0 290 23.097656 435 23.097656v22.457032c-145 0-290-23.097656-435-23.097656zm0 0"/><path d="m13.5 143.554688c145 0 290-21.152344 435-21.152344v19.738281c-145 0-290 21.152344-435 21.152344zm0 0"/><path d="m13.5 201.429688c145 0 290-58.609376 435-58.609376v4.082032c-145 0-290 58.613281-435 58.613281zm0 0"/><path d="m13.5 256.582031c145 0 290-100.152343 435-100.152343v4.085937c-145 0-290 100.152344-435 100.152344zm0 0"/><path d="m13.5 188.484375c145 0 290-46.34375 435-46.34375v.679687c-145 0-290 46.347657-435 46.347657zm0 0"/><path d="m13.5 234.109375c145 0 290-53.84375 435-53.84375v3.402344c-145 0-290 53.847656-435 53.847656zm0 0"/><path d="m13.5 99.304688c145 0 290 68.710937 435 68.710937v4.761719c-145 0-290-68.707032-435-68.707032zm0 0"/><path d="m13.5 163.292969c145 0 290 9.484375 435 9.484375v7.488281c-145 0-290-9.488281-435-9.488281zm0 0"/><path d="m13.5 260.667969c145 0 290-77 435-77v1.359375c-145 0-290 77-435 77zm0 0"/><path d="m13.5 238.875c145 0 290-18.417969 435-18.417969v4.765625c-145 0-290 18.417969-435 18.417969zm0 0"/><path d="m13.5 105.429688c145 0 290 108.222656 435 108.222656v2.722656c-145 0-290-108.222656-435-108.222656zm0 0"/><path d="m13.5 173.5c145 0 290 42.875 435 42.875v2.722656c-145 0-290-42.875-435-42.875zm0 0"/><path d="m13.5 206.195312c145 0 290 12.902344 435 12.902344v1.359375c-145 0-290-12.902343-435-12.902343zm0 0"/><path d="m13.5 262.027344c145 0 290-36.804688 435-36.804688v.679688c-145 0-290 36.804687-435 36.804687zm0 0"/><path d="m13.5 243.640625c145 0 290-8.875 435-8.875v.679687c-145 0-290 8.875-435 8.875zm0 0"/><path d="m13.5 176.222656c145 0 290 57.179688 435 57.179688v1.363281c-145 0-290-57.183594-435-57.183594zm0 0"/><path d="m13.5 244.320312c145 0 290-.015624 435-.015624v.679687c-145 0-290 .015625-435 .015625zm0 0"/><path d="m13.5 108.152344c145 0 290 134.792968 435 134.792968v.679688c-145 0-290-134.792969-435-134.792969zm0 0"/><path d="m13.5 177.582031c145 0 290 66.042969 435 66.042969v.679688c-145 0-290-66.039063-435-66.039063zm0 0"/><path d="m13.5 262.707031c145 0 290-17.722656 435-17.722656v.683594c-145 0-290 17.722656-435 17.722656zm0 0"/><path d="m13.5 178.265625c145 0 290 74.902344 435 74.902344v1.359375c-145 0-290-74.902344-435-74.902344zm0 0"/><path d="m13.5 263.390625c145 0 290-8.863281 435-8.863281v.679687c-145 0-290 8.863281-435 8.863281zm0 0"/><path d="m13.5 238.195312c145 0 290-32.722656 435-32.722656v.679688c-145 0-290 32.722656-435 32.722656zm0 0"/><path d="m13.5 104.75c145 0 290 97.320312 435 97.320312v.679688c-145 0-290-97.320312-435-97.320312zm0 0"/><path d="m13.5 171.457031c145 0 290 31.292969 435 31.292969v2.042969c-145 0-290-31.292969-435-31.292969zm0 0"/><path d="m13.5 205.515625c145 0 290-.722656 435-.722656v.679687c-145 0-290 .722656-435 .722656zm0 0"/><path d="m13.5 237.515625c145 0 290-43.625 435-43.625v.679687c-145 0-290 43.625-435 43.625zm0 0"/><path d="m13.5 104.070312c145 0 290 88.457032 435 88.457032v.679687c-145 0-290-88.457031-435-88.457031zm0 0"/><path d="m13.5 170.777344c145 0 290 22.429687 435 22.429687v.683594c-145 0-290-22.433594-435-22.433594zm0 0"/><path d="m13.5 245c145 0 290 18.390625 435 18.390625v.679687c-145 0-290-18.390624-435-18.390624zm0 0"/><path d="m13.5 108.832031c145 0 290 153.875 435 153.875v.683594c-145 0-290-153.875-435-153.875zm0 0"/><path d="m13.5 264.070312h435v.679688c-145 0-290 0-435 0zm0 0"/></g><g><use x="17.999999" xlink:href="#a" y="232.992178"/><use x="20.083739" xlink:href="#b" y="232.992178"/><use x="24.254882" xlink:href="#c" y="232.992178"/><use x="28.426024" xlink:href="#d" y="232.992178"/><use x="30.092284" xlink:href="#e" y="232.992178"/><use x="33.842284" xlink:href="#d" y="232.992178"/><use x="35.508543" xlink:href="#c" y="232.992178"/><use x="39.679686" xlink:href="#f" y="232.992178"/><use x="43.850828" xlink:href="#g" y="232.992178"/><use x="48.021971" xlink:href="#h" y="232.992178"/><use x="49.68823" xlink:href="#i" y="232.992178"/><use x="51.77197" xlink:href="#j" y="232.992178"/><use x="55.943113" xlink:href="#d" y="232.992178"/><use x="57.609372" xlink:href="#k" y="232.992178"/><use x="59.693113" xlink:href="#l" y="232.992178"/><use x="61.776853" xlink:href="#m" y="232.992178"/></g><g><use x="401.050768" xlink:href="#n" y="37.20703"/><use x="406.05321" xlink:href="#o" y="37.20703"/><use x="410.224352" xlink:href="#p" y="37.20703"/><use x="413.974352" xlink:href="#d" y="37.20703"/><use x="415.640611" xlink:href="#g" y="37.20703"/><use x="419.811754" xlink:href="#h" y="37.20703"/><use x="421.478014" xlink:href="#i" y="37.20703"/><use x="423.561754" xlink:href="#q" y="37.20703"/><use x="429.809312" xlink:href="#r" y="37.20703"/><use x="433.980454" xlink:href="#c" y="37.20703"/><use x="438.151597" xlink:href="#d" y="37.20703"/><use x="439.817856" xlink:href="#g" y="37.20703"/></g><g><use x="17.999999" xlink:href="#s" y="79.124997"/><use x="23.00244" xlink:href="#c" y="79.124997"/><use x="27.173583" xlink:href="#e" y="79.124997"/><use x="30.923583" xlink:href="#r" y="79.124997"/><use x="35.094725" xlink:href="#t" y="79.124997"/><use x="37.592284" xlink:href="#l" y="79.124997"/><use x="39.676024" xlink:href="#d" y="79.124997"/><use x="41.342283" xlink:href="#m" y="79.124997"/><use x="45.092283" xlink:href="#d" y="79.124997"/><use x="46.758543" xlink:href="#b" y="79.124997"/><use x="50.929685" xlink:href="#j" y="79.124997"/></g><g><use x="17.999999" xlink:href="#a" y="150.937494"/><use x="20.083739" xlink:href="#b" y="150.937494"/><use x="24.254882" xlink:href="#m" y="150.937494"/><use x="28.004882" xlink:href="#l" y="150.937494"/><use x="30.088622" xlink:href="#d" y="150.937494"/><use x="31.754881" xlink:href="#l" y="150.937494"/><use x="33.838622" xlink:href="#f" y="150.937494"/><use x="38.009764" xlink:href="#l" y="150.937494"/><use x="40.093504" xlink:href="#d" y="150.937494"/><use x="41.759764" xlink:href="#o" y="150.937494"/><use x="45.930906" xlink:href="#b" y="150.937494"/><use x="50.102049" xlink:href="#i" y="150.937494"/><use x="52.185789" xlink:href="#u" y="150.937494"/><use x="56.767087" xlink:href="#f" y="150.937494"/><use x="60.93823" xlink:href="#b" y="150.937494"/><use x="65.109372" xlink:href="#c" y="150.937494"/><use x="69.280514" xlink:href="#d" y="150.937494"/><use x="70.946774" xlink:href="#b" y="150.937494"/><use x="75.117917" xlink:href="#j" y="150.937494"/></g><g><use x="17.999999" xlink:href="#s" y="204.726554"/><use x="23.00244" xlink:href="#f" y="204.726554"/><use x="27.173583" xlink:href="#c" y="204.726554"/><use x="31.344725" xlink:href="#d" y="204.726554"/><use x="33.010985" xlink:href="#r" y="204.726554"/><use x="37.182127" xlink:href="#b" y="204.726554"/><use x="41.35327" xlink:href="#p" y="204.726554"/><use x="45.10327" xlink:href="#r" y="204.726554"/></g><g><use x="17.999999" xlink:href="#v" y="261.585927"/><use x="23.833739" xlink:href="#l" y="261.585927"/><use x="25.917479" xlink:href="#w" y="261.585927"/><use x="30.088622" xlink:href="#r" y="261.585927"/><use x="34.259764" xlink:href="#t" y="261.585927"/></g><g><use x="17.999999" xlink:href="#x" y="190.769527"/><use x="23.416259" xlink:href="#o" y="190.769527"/><use x="27.587401" xlink:href="#b" y="190.769527"/><use x="31.758544" xlink:href="#r" y="190.769527"/></g><g><use x="348.539048" xlink:href="#y" y="84.175778"/><use x="353.120347" xlink:href="#w" y="84.175778"/><use x="357.291489" xlink:href="#d" y="84.175778"/><use x="358.957749" xlink:href="#t" y="84.175778"/><use x="361.455307" xlink:href="#c" y="84.175778"/><use x="365.62645" xlink:href="#i" y="84.175778"/><use x="367.71019" xlink:href="#z" y="84.175778"/><use x="371.881332" xlink:href="#g" y="84.175778"/><use x="376.052474" xlink:href="#t" y="84.175778"/><use x="378.550033" xlink:href="#l" y="84.175778"/><use x="380.633773" xlink:href="#A" y="84.175778"/><use x="384.383773" xlink:href="#i" y="84.175778"/><use x="386.467513" xlink:href="#p" y="84.175778"/><use x="390.217513" xlink:href="#o" y="84.175778"/><use x="394.388655" xlink:href="#b" y="84.175778"/><use x="398.559798" xlink:href="#l" y="84.175778"/><use x="400.643538" xlink:href="#r" y="84.175778"/><use x="404.81468" xlink:href="#b" y="84.175778"/><use x="408.985822" xlink:href="#l" y="84.175778"/><use x="411.069563" xlink:href="#i" y="84.175778"/><use x="413.153303" xlink:href="#z" y="84.175778"/><use x="417.324445" xlink:href="#h" y="84.175778"/><use x="418.990705" xlink:href="#g" y="84.175778"/><use x="423.161847" xlink:href="#l" y="84.175778"/><use x="425.245587" xlink:href="#k" y="84.175778"/><use x="427.329327" xlink:href="#o" y="84.175778"/><use x="431.50047" xlink:href="#t" y="84.175778"/><use x="433.998028" xlink:href="#B" y="84.175778"/><use x="440.245587" xlink:href="#m" y="84.175778"/></g><use x="417.035143" xlink:href="#C" y="132.843744"/><g><use x="423.978502" xlink:href="#r" y="132.843744"/><use x="428.149644" xlink:href="#D" y="132.843744"/><use x="432.320786" xlink:href="#m" y="132.843744"/><use x="436.070786" xlink:href="#d" y="132.843744"/><use x="437.737046" xlink:href="#l" y="132.843744"/><use x="439.820786" xlink:href="#r" y="132.843744"/></g><g><use x="378.117172" xlink:href="#E" y="179.144528"/><use x="383.533431" xlink:href="#o" y="179.144528"/><use x="387.704574" xlink:href="#b" y="179.144528"/><use x="391.875716" xlink:href="#l" y="179.144528"/><use x="393.959456" xlink:href="#r" y="179.144528"/><use x="398.130599" xlink:href="#b" y="179.144528"/><use x="402.301741" xlink:href="#l" y="179.144528"/><use x="404.385481" xlink:href="#i" y="179.144528"/><use x="406.469221" xlink:href="#z" y="179.144528"/><use x="410.640364" xlink:href="#g" y="179.144528"/><use x="414.811506" xlink:href="#t" y="179.144528"/><use x="417.309064" xlink:href="#l" y="179.144528"/><use x="419.392805" xlink:href="#b" y="179.144528"/><use x="423.563947" xlink:href="#r" y="179.144528"/><use x="427.735089" xlink:href="#t" y="179.144528"/><use x="430.232648" xlink:href="#m" y="179.144528"/><use x="433.982648" xlink:href="#w" y="179.144528"/><use x="438.15379" xlink:href="#d" y="179.144528"/><use x="439.82005" xlink:href="#z" y="179.144528"/></g><g><use x="425.238267" xlink:href="#F" y="222.398428"/><use x="430.240708" xlink:href="#B" y="222.398428"/><use x="436.488267" xlink:href="#g" y="222.398428"/><use x="440.659409" xlink:href="#d" y="222.398428"/><use x="442.325669" xlink:href="#h" y="222.398428"/></g><use x="430.24217" xlink:href="#y" y="237.046865"/><g><use x="433.992169" xlink:href="#r" y="237.046865"/><use x="438.163312" xlink:href="#G" y="237.046865"/><use x="441.913312" xlink:href="#l" y="237.046865"/></g><g><use x="428.578107" xlink:href="#H" y="246.925775"/><use x="433.580548" xlink:href="#t" y="246.925775"/><use x="436.078107" xlink:href="#d" y="246.925775"/><use x="437.744367" xlink:href="#b" y="246.925775"/><use x="441.915509" xlink:href="#l" y="246.925775"/></g><g><use x="416.894518" xlink:href="#H" y="256.804677"/><use x="421.896959" xlink:href="#o" y="256.804677"/><use x="426.068101" xlink:href="#c" y="256.804677"/><use x="430.239244" xlink:href="#p" y="256.804677"/><use x="433.989243" xlink:href="#g" y="256.804677"/><use x="438.160386" xlink:href="#m" y="256.804677"/><use x="441.910386" xlink:href="#l" y="256.804677"/></g><g><use x="406.886706" xlink:href="#q" y="206.730464"/><use x="413.134264" xlink:href="#o" y="206.730464"/><use x="417.305406" xlink:href="#D" y="206.730464"/><use x="421.476549" xlink:href="#d" y="206.730464"/><use x="423.142808" xlink:href="#h" y="206.730464"/><use x="424.809068" xlink:href="#r" y="206.730464"/><use x="428.98021" xlink:href="#i" y="206.730464"/></g><g><use x="430.650132" xlink:href="#s" y="206.730464"/><use x="435.652573" xlink:href="#z" y="206.730464"/><use x="439.823716" xlink:href="#z" y="206.730464"/></g><g><use x="415.640608" xlink:href="#I" y="196.171867"/><use x="421.056867" xlink:href="#r" y="196.171867"/><use x="425.22801" xlink:href="#g" y="196.171867"/><use x="429.399152" xlink:href="#c" y="196.171867"/><use x="433.570294" xlink:href="#r" y="196.171867"/><use x="437.741437" xlink:href="#t" y="196.171867"/><use x="440.238995" xlink:href="#m" y="196.171867"/></g><g><use x="403.546858" xlink:href="#s" y="266.343739"/><use x="408.549299" xlink:href="#j" y="266.343739"/><use x="412.720442" xlink:href="#j" y="266.343739"/><use x="416.891584" xlink:href="#t" y="266.343739"/><use x="419.389143" xlink:href="#r" y="266.343739"/><use x="423.560285" xlink:href="#j" y="266.343739"/><use x="427.731427" xlink:href="#g" y="266.343739"/><use x="431.90257" xlink:href="#l" y="266.343739"/><use x="433.98631" xlink:href="#d" y="266.343739"/><use x="435.65257" xlink:href="#o" y="266.343739"/><use x="439.823712" xlink:href="#b" y="266.343739"/></g><path d="m6 215.054688h7.5v30.625h-7.5zm0 0" fill="#4285f4" fill-opacity=".8"/><path d="m448.5 6h7.5v57.167969h-7.5zm0 0" fill="#5e97f5" fill-opacity=".8"/><path d="m6 43.5h7.5v66.015625h-7.5zm0 0" fill="#db4437" fill-opacity=".8"/><path d="m6 117.015625h7.5v62.609375h-7.5zm0 0" fill="#e06055" fill-opacity=".8"/><path d="m6 196.667969h7.5v10.886719h-7.5zm0 0" fill="#f4b400" fill-opacity=".8"/><path d="m6 253.179688h7.5v11.570312h-7.5zm0 0" fill="#f5bf26" fill-opacity=".8"/><path d="m6 187.125h7.5v2.042969h-7.5zm0 0" fill="#0f9d58" fill-opacity=".8"/><path d="m448.5 70.667969h7.5v21.777343h-7.5zm0 0" fill="#33ab71" fill-opacity=".8"/><path d="m448.5 99.945312h7.5v60.570313h-7.5zm0 0" fill="#ab47bc" fill-opacity=".8"/><path d="m448.5 168.015625h7.5v17.011719h-7.5zm0 0" fill="#b762c6" fill-opacity=".8"/><path d="m448.5 213.652344h7.5v12.25h-7.5zm0 0" fill="#00acc1" fill-opacity=".8"/><path d="m448.5 233.402344h7.5v2.042968h-7.5zm0 0" fill="#26b8ca" fill-opacity=".8"/><path d="m448.5 242.945312h7.5v2.722657h-7.5zm0 0" fill="#ff7043" fill-opacity=".8"/><path d="m448.5 253.167969h7.5v2.039062h-7.5zm0 0" fill="#ff855f" fill-opacity=".8"/><path d="m448.5 202.070312h7.5v4.082032h-7.5zm0 0" fill="#9e9d24" fill-opacity=".8"/><path d="m448.5 192.527344h7.5v2.042968h-7.5zm0 0" fill="#acab44" fill-opacity=".8"/><path d="m448.5 262.707031h7.5v2.042969h-7.5zm0 0" fill="#5c6bc0" fill-opacity=".8"/></svg>